<svg width="32" height="28" viewBox="0 0 32 28" fill="none" xmlns="http://www.w3.org/2000/svg">
<path fill-rule="evenodd" clip-rule="evenodd" d="M17.844 11.5492V8.04624H14.1766V11.5492H17.844ZM20.0334 11.5492V8.04624H29.7218C30.931 8.04624 31.9112 7.06599 31.9112 5.85679V2.18947C31.9112 0.98027 30.931 2.07627e-05 29.7218 2.07627e-05H17.8536L17.844 1.60304e-07L14.1766 0L14.167 2.07627e-05H2.18945C0.98025 2.07627e-05 0 0.98027 0 2.18947V5.85679C0 7.06599 0.980249 8.04624 2.18945 8.04624H11.9872V11.5492H7.60808C6.39888 11.5492 5.41863 12.5295 5.41863 13.7387V17.406C5.41863 18.6152 6.39888 19.5955 7.60808 19.5955H11.9872V25.4523C11.9872 26.6615 12.9674 27.6418 14.1766 27.6418L17.844 27.6418C19.0532 27.6418 20.0334 26.6615 20.0334 25.4523V19.5955H24.5035C25.7127 19.5955 26.693 18.6152 26.693 17.406V13.7387C26.693 12.5295 25.7127 11.5492 24.5035 11.5492H20.0334ZM17.844 13.7387H14.1766L14.1766 17.406H17.844V13.7387ZM20.0334 17.406L20.0334 13.7387H24.5035L24.5035 17.406H20.0334ZM17.844 19.5955H14.1766V25.4523H17.844V19.5955ZM11.9872 17.406L11.9872 13.7387H7.60808L7.60808 17.406H11.9872ZM29.7218 2.18947H20.0334V5.85679H29.7218V2.18947ZM17.844 5.85679V2.18947H14.1766V5.85679H17.844ZM2.18945 2.18947H11.9872V5.85679H2.18945L2.18945 2.18947Z" fill="#ff0000"/>
</svg>
