<svg width="47" height="41" viewBox="0 0 47 41" fill="none" xmlns="http://www.w3.org/2000/svg">
<path fill-rule="evenodd" clip-rule="evenodd" d="M43.0967 3.17471H29.0488V8.49236H43.0967V3.17471ZM20.5565 3.17471L25.8741 3.17471V8.49236H20.5565V3.17471ZM20.5565 11.6671H25.8741V16.7468H20.5565V11.6671ZM17.3818 16.7468V11.6671H3.17471C1.42137 11.6671 0 10.2457 0 8.49236V3.17471C0 1.42137 1.42137 0 3.17471 0H20.5565H25.8741H43.0967C44.8501 0 46.2714 1.42137 46.2714 3.17471V8.49236C46.2714 10.2457 44.8501 11.6671 43.0967 11.6671H29.0488V16.7468H35.5301C37.2835 16.7468 38.7048 18.1682 38.7048 19.9215V25.2392C38.7048 26.9925 37.2835 28.4139 35.5301 28.4139H29.0488V36.906C29.0488 38.6594 27.6275 40.0807 25.8741 40.0807H20.5565C18.8031 40.0807 17.3818 38.6594 17.3818 36.906V28.4139H11.0316C9.2783 28.4139 7.85693 26.9925 7.85693 25.2392V19.9215C7.85693 18.1682 9.2783 16.7468 11.0316 16.7468H17.3818ZM17.3818 25.2392H11.0316L11.0316 19.9215H17.3818L17.3818 25.2392ZM20.5565 25.2392V19.9215H25.8741V25.2392H20.5565ZM20.5565 28.4139V36.906H25.8741V28.4139H20.5565ZM29.0488 25.2392H35.5301L35.5301 19.9215H29.0488L29.0488 25.2392ZM17.3818 3.17471V8.49236H3.17471L3.17471 3.17471L17.3818 3.17471Z" fill="url(#paint0_linear_101_867)"/>
<defs>
<linearGradient id="paint0_linear_101_867" x1="23.1357" y1="0" x2="23.1357" y2="40.0807" gradientUnits="userSpaceOnUse">
<stop stop-color="#FA5D04"/>
<stop offset="0.839509" stop-color="#23305C"/>
</linearGradient>
</defs>
</svg>
